<svg xmlns="http://www.w3.org/2000/svg" version="1.1" xmlns:xlink="http://www.w3.org/1999/xlink" xmlns:svgjs="http://svgjs.dev/svgjs" width="1500" height="371" viewBox="0 0 1500 371"><g transform="matrix(1,0,0,1,-0.9090909090909918,-0.8581112847938925)"><svg viewBox="0 0 396 98" data-background-color="#ffffff" preserveAspectRatio="xMidYMid meet" height="371" width="1500" xmlns="http://www.w3.org/2000/svg" xmlns:xlink="http://www.w3.org/1999/xlink"><g id="tight-bounds" transform="matrix(1,0,0,1,0.2400000000000091,0.22667090541725088)"><svg viewBox="0 0 395.52 97.54665818916548" height="97.54665818916548" width="395.52"><g><svg viewBox="0 0 558.5568379525544 137.7562524043763" height="97.54665818916548" width="395.52"><g transform="matrix(1,0,0,1,163.03683795255444,42.10646628315982)"><svg viewBox="0 0 395.5199999999999 53.54331983805667" height="53.54331983805667" width="395.5199999999999"><g id="textblocktransform"><svg viewBox="0 0 395.5199999999999 53.54331983805667" height="53.54331983805667" width="395.5199999999999" id="textblock"><g><svg viewBox="0 0 395.5199999999999 53.54331983805667" height="53.54331983805667" width="395.5199999999999"><g transform="matrix(1,0,0,1,0,0)"><svg width="395.5199999999999" viewBox="2.9 -25.35 197.57999999999998 26.75" height="53.54331983805667" data-palette-color="#803d3b"><path d="M2.9 0.3L3.2-1.75Q4.95-2.05 5.53-2.68 6.1-3.3 6.1-4.95L6.1-4.95 6.15-20.85Q6.15-22.1 5.85-22.53 5.55-22.95 4.7-22.95L4.7-22.95 3.3-22.9 3.15-23.1 3.45-25Q3.7-25 4.93-24.95 6.15-24.9 8.15-24.9L8.15-24.9Q9.5-24.9 11.2-24.98 12.9-25.05 13.6-25.05L13.6-25.05Q18.1-25.05 20.38-23.15 22.65-21.25 22.65-17.95L22.65-17.95Q22.65-15.75 21.3-13.75 19.95-11.75 17.78-10.53 15.6-9.3 13.15-9.3L13.15-9.3 9.7-9.3 9.65-5.8Q9.65-4.05 9.78-3.28 9.9-2.5 10.25-2.25 10.6-2 11.45-2L11.45-2Q12.1-2 12.75-2.05 13.4-2.1 13.6-2.1L13.6-2.1 13.7-1.9 13.3 0.1Q12.85 0.1 11.65 0.05 10.45 0 9.2 0L9.2 0Q7.55 0 5.25 0.1 2.95 0.2 2.9 0.3L2.9 0.3ZM13.95-11.45Q18.6-12.2 18.6-17.25L18.6-17.25Q18.6-20.05 16.85-21.38 15.1-22.7 11.3-22.7L11.3-22.7Q10.6-22.7 10.45-22.63 10.3-22.55 10.25-22.1L10.25-22.1Q9.85-15.75 9.8-12L9.8-12 13.95-11.45ZM36.9 0.35L36.75 0.1 36.9-1.7Q39-1.85 39.72-2.15 40.45-2.45 40.45-3.15L40.45-3.15Q40.45-3.95 40.1-4.85L40.1-4.85 38.9-8.7Q37.9-8.75 34.75-8.75L34.75-8.75Q33.3-8.75 30.45-8.45L30.45-8.45 29.05-4.75Q28.7-3.6 28.7-3.35L28.7-3.35Q28.7-2.55 29.25-2.2 29.8-1.85 31.05-1.85L31.05-1.85 33.2-1.85 33.35-1.65 33.05 0.25Q32.55 0.2 30.77 0.1 29 0 27.3 0L27.3 0Q25.7 0 24.42 0.05 23.15 0.1 22.7 0.1L22.7 0.1 23-1.95Q24.1-2.1 24.75-2.73 25.4-3.35 26.05-4.85L26.05-4.85 33.9-24.7 37.45-25.35 37.8-25.3Q37.8-25.1 40.07-17.4 42.35-9.7 44.15-4.65L44.15-4.65Q44.65-3.2 45.42-2.63 46.2-2.05 47.9-1.9L47.9-1.9 48-1.7 47.75 0.1Q47.25 0.1 45.9 0.05 44.55 0 43.2 0L43.2 0Q41.15 0 39.3 0.15 37.45 0.3 36.9 0.35L36.9 0.35ZM31.25-10.8L34.65-10.8Q36.4-10.8 38.3-11L38.3-11 35.25-20.7 34.9-20.7 31.25-10.8ZM52.45 0.2L52.8-1.8Q54.8-1.95 55.62-2.3 56.45-2.65 56.67-3.48 56.9-4.3 56.9-6.35L56.9-6.35 56.9-22.9Q53.75-22.8 52.65-22.55 51.55-22.3 51.02-21.38 50.5-20.45 50.15-17.9L50.15-17.9 47.8-17.75Q47.9-18.4 48.12-20.63 48.35-22.85 48.4-25L48.4-25 48.8-25.35 52.35-24.95 65.1-24.95 68.75-25.35 69.15-25Q69.2-22.8 69.4-20.65 69.6-18.5 69.7-17.9L69.7-17.9 67.4-17.75Q67-20.35 66.47-21.33 65.95-22.3 64.92-22.55 63.9-22.8 61-22.9L61-22.9Q60.75-20.5 60.55-14.93 60.35-9.35 60.35-4.65L60.35-4.65Q60.35-3.2 60.9-2.6 61.45-2 62.7-2L62.7-2Q63.6-2 64.17-2.05 64.75-2.1 64.9-2.1L64.9-2.1 65.05-1.95 64.7 0.15Q64 0.15 62.1 0.08 60.2 0 58.4 0L58.4 0Q56.6 0 54.85 0.08 53.1 0.15 52.45 0.2L52.45 0.2ZM73.34 0.4L73.59-1.7Q75.44-1.9 76.09-2.6 76.74-3.3 76.74-5L76.74-5 76.79-20.85Q76.79-22.1 76.49-22.53 76.19-22.95 75.29-22.95L75.29-22.95 73.94-22.9 73.84-23.1 74.14-25Q74.74-25 76.49-24.95 78.24-24.9 80.29-24.9L80.29-24.9Q88.64-24.9 92.64-25.35L92.64-25.35 92.79-25.1Q92.69-24.55 92.34-22.6 91.99-20.65 91.84-18.4L91.84-18.4 89.44-18.2Q89.44-18.4 89.49-18.88 89.54-19.35 89.54-19.85L89.54-19.85Q89.54-21.15 89.17-21.68 88.79-22.2 87.62-22.38 86.44-22.55 83.54-22.55L83.54-22.55Q82.19-22.55 81.69-22.48 81.19-22.4 81.04-22.13 80.89-21.85 80.84-21.1L80.84-21.1 80.54-14 84.64-13.95Q85.54-13.95 87.29-14.13 89.04-14.3 89.59-14.35L89.59-14.35 89.79-14.1 89.19-11.5Q88.64-11.5 87.02-11.55 85.39-11.6 83.59-11.6L83.59-11.6Q82.19-11.6 80.44-11.35L80.44-11.35Q80.29-7.55 80.29-4.5L80.29-4.5Q80.29-3.35 80.47-2.9 80.64-2.45 81.27-2.3 81.89-2.15 83.34-2.15L83.34-2.15Q86.59-2.15 87.99-2.45 89.39-2.75 89.97-3.68 90.54-4.6 90.89-6.85L90.89-6.85 93.09-7.05 93.29-6.8Q93.14-6.25 92.77-4.23 92.39-2.2 92.19 0L92.19 0 91.89 0.25Q90.54 0.2 86.29 0.1 82.04 0 79.39 0L79.39 0Q77.34 0 75.59 0.18 73.84 0.35 73.34 0.4L73.34 0.4ZM119.14-6.8L119.09-21.25Q119.09-22.9 117.74-22.9L117.74-22.9 116.24-22.9 116.14-23.1 116.49-25.05Q116.94-25 118.19-24.95 119.44-24.9 120.74-24.9L120.74-24.9Q121.84-24.9 123.22-25.03 124.59-25.15 124.99-25.2L124.99-25.2 124.79-23.15Q123.34-22.95 122.72-22.38 122.09-21.8 122.04-20.65L122.04-20.65 121.44 0.85 119.49 1.4Q114.74-5.55 109.89-12.2 105.04-18.85 105.04-18.75L105.04-18.75 104.79-18.75 104.64-3.6Q104.64-2.65 104.94-2.3 105.24-1.95 105.94-1.95L105.94-1.95 107.94-2 108.09-1.85 107.69 0.15Q107.24 0.1 105.92 0.05 104.59 0 103.14 0L103.14 0Q101.99 0 100.69 0.13 99.39 0.25 98.99 0.3L98.99 0.3 99.24-1.75Q100.49-1.9 101.09-2.48 101.69-3.05 101.74-4.2L101.74-4.2 102.29-20.7Q102.29-21.95 101.57-22.43 100.84-22.9 98.79-23.15L98.79-23.15 98.59-23.4 98.94-25.1Q99.34-25.05 100.47-24.98 101.59-24.9 102.74-24.9L102.74-24.9Q103.84-24.9 104.69-24.95 105.54-25 105.79-25.05L105.79-25.05Q109.84-19.1 114.37-12.9 118.89-6.7 118.89-6.8L118.89-6.8 119.14-6.8ZM131.24 0.2L131.59-1.8Q133.59-1.95 134.41-2.3 135.24-2.65 135.46-3.48 135.69-4.3 135.69-6.35L135.69-6.35 135.69-22.9Q132.54-22.8 131.44-22.55 130.34-22.3 129.81-21.38 129.29-20.45 128.94-17.9L128.94-17.9 126.59-17.75Q126.69-18.4 126.91-20.63 127.14-22.85 127.19-25L127.19-25 127.59-25.35 131.14-24.95 143.89-24.95 147.54-25.35 147.94-25Q147.99-22.8 148.19-20.65 148.39-18.5 148.49-17.9L148.49-17.9 146.19-17.75Q145.79-20.35 145.26-21.33 144.74-22.3 143.71-22.55 142.69-22.8 139.79-22.9L139.79-22.9Q139.54-20.5 139.34-14.93 139.14-9.35 139.14-4.65L139.14-4.65Q139.14-3.2 139.69-2.6 140.24-2 141.49-2L141.49-2Q142.39-2 142.96-2.05 143.54-2.1 143.69-2.1L143.69-2.1 143.84-1.95 143.49 0.15Q142.79 0.15 140.89 0.08 138.99 0 137.19 0L137.19 0Q135.39 0 133.64 0.08 131.89 0.15 131.24 0.2L131.24 0.2ZM152.14 0.4L152.39-1.7Q154.24-1.9 154.89-2.6 155.54-3.3 155.54-5L155.54-5 155.59-20.85Q155.59-22.1 155.29-22.53 154.99-22.95 154.09-22.95L154.09-22.95 152.74-22.9 152.64-23.1 152.94-25Q153.54-25 155.29-24.95 157.04-24.9 159.09-24.9L159.09-24.9Q167.44-24.9 171.44-25.35L171.44-25.35 171.59-25.1Q171.49-24.55 171.14-22.6 170.79-20.65 170.64-18.4L170.64-18.4 168.24-18.2Q168.24-18.4 168.29-18.88 168.34-19.35 168.34-19.85L168.34-19.85Q168.34-21.15 167.96-21.68 167.59-22.2 166.41-22.38 165.24-22.55 162.34-22.55L162.34-22.55Q160.99-22.55 160.49-22.48 159.99-22.4 159.84-22.13 159.69-21.85 159.64-21.1L159.64-21.1 159.34-14 163.44-13.95Q164.34-13.95 166.09-14.13 167.84-14.3 168.39-14.35L168.39-14.35 168.59-14.1 167.99-11.5Q167.44-11.5 165.81-11.55 164.19-11.6 162.39-11.6L162.39-11.6Q160.99-11.6 159.24-11.35L159.24-11.35Q159.09-7.55 159.09-4.5L159.09-4.5Q159.09-3.35 159.26-2.9 159.44-2.45 160.06-2.3 160.69-2.15 162.14-2.15L162.14-2.15Q165.39-2.15 166.79-2.45 168.19-2.75 168.76-3.68 169.34-4.6 169.69-6.85L169.69-6.85 171.89-7.05 172.09-6.8Q171.94-6.25 171.56-4.23 171.19-2.2 170.99 0L170.99 0 170.69 0.25Q169.34 0.2 165.09 0.1 160.84 0 158.19 0L158.19 0Q156.14 0 154.39 0.18 152.64 0.35 152.14 0.4L152.14 0.4ZM196.38 0.6Q195.28 0.6 194.13-0.38 192.98-1.35 192.03-3.05L192.03-3.05 187.83-10.4 184.58-10.4 184.48-5.05Q184.48-3.6 184.68-2.98 184.88-2.35 185.46-2.15 186.03-1.95 187.43-1.9L187.43-1.9 187.53-1.75 187.13 0.15Q186.53 0.1 184.96 0.08 183.38 0.05 181.78 0.05L181.78 0.05Q180.23 0.05 179.08 0.1 177.93 0.15 177.53 0.2L177.53 0.2 177.88-1.85Q179.73-2.1 180.33-2.7 180.93-3.3 180.93-4.95L180.93-4.95 180.98-20.9Q180.98-22.1 180.68-22.53 180.38-22.95 179.53-22.95L179.53-22.95 178.13-22.9 177.98-23.1 178.28-25Q178.78-25 180.18-24.95 181.58-24.9 182.98-24.9L182.98-24.9Q184.43-24.9 186.08-24.98 187.73-25.05 188.33-25.05L188.33-25.05Q192.38-25.05 194.68-23.38 196.98-21.7 196.98-18.75L196.98-18.75Q196.98-16.45 195.43-14.5 193.88-12.55 191.08-11.3L191.08-11.3 195.33-4.9Q196.53-3.1 197.63-2.35 198.73-1.6 200.28-1.6L200.28-1.6 200.48-1.35 200.23 0.2 196.38 0.6ZM188.73-12.6Q189.68-13 190.41-13.38 191.13-13.75 192.03-14.95 192.93-16.15 192.93-18.05L192.93-18.05Q192.93-22.9 185.78-22.9L185.78-22.9Q185.38-22.9 185.23-22.73 185.08-22.55 185.08-22L185.08-22Q184.68-15.9 184.68-13L184.68-13 188.73-12.6Z" opacity="1" transform="matrix(1,0,0,1,0,0)" fill="#803d3b" class="wordmark-text-0" data-fill-palette-color="primary" id="text-0"></path></svg></g></svg></g></svg></g></svg></g><g><svg viewBox="0 0 137.7562524043763 137.7562524043763" height="137.7562524043763" width="137.7562524043763"><g><svg></svg></g><g id="icon-0"><svg viewBox="0 0 137.7562524043763 137.7562524043763" height="137.7562524043763" width="137.7562524043763"><g><path d="M0 68.878c0-38.04 30.838-68.878 68.878-68.878 38.04 0 68.878 30.838 68.878 68.878 0 38.04-30.838 68.878-68.878 68.878-38.04 0-68.878-30.838-68.878-68.878zM68.878 132.928c35.374 0 64.05-28.676 64.05-64.05 0-35.374-28.676-64.05-64.05-64.049-35.374 0-64.05 28.676-64.049 64.049 0 35.374 28.676 64.05 64.049 64.05z" data-fill-palette-color="accent" fill="#b44b48" stroke="transparent"></path><ellipse rx="68.18934494016628" ry="68.18934494016628" cx="68.87812620218816" cy="68.87812620218816" fill="#b44b48" stroke="transparent" stroke-width="0" fill-opacity="1" data-fill-palette-color="accent"></ellipse></g><g transform="matrix(1,0,0,1,33.00829299725915,33.007995557023854)"><svg viewBox="0 0 71.73966640985802 71.7402612903286" height="71.7402612903286" width="71.73966640985802"><g><svg xmlns="http://www.w3.org/2000/svg" viewBox="2 2 59.99950247144918 60" x="0" y="0" height="71.7402612903286" width="71.73966640985802" class="icon-dxe-0" data-fill-palette-color="quaternary" id="dxe-0"><g fill="#ffffff" data-fill-palette-color="quaternary"><path d="M54 27V11C54 10.978 53.989 10.959 53.987 10.937A1 1 0 0 0 53.936 10.68C53.925 10.648 53.917 10.617 53.903 10.586A1 1 0 0 0 53.703 10.293L45.703 2.293A1 1 0 0 0 45.403 2.093C45.375 2.081 45.348 2.073 45.32 2.063A1 1 0 0 0 45.047 2.009C45.036 2.01 45.019 2 45 2H15A5.006 5.006 0 0 0 10 7V35H12V7A3 3 0 0 1 15 4H44V9A3 3 0 0 0 47 12H52V27ZM47 10A1 1 0 0 1 46 9V5.415L50.586 10Z" fill="#ffffff" data-fill-palette-color="quaternary"></path><path d="M54 44H52V51A3 3 0 0 1 49 54H31V56H49A5.006 5.006 0 0 0 54 51Z" fill="#ffffff" data-fill-palette-color="quaternary"></path><rect x="14" y="6" width="2" height="2" fill="#ffffff" data-fill-palette-color="quaternary"></rect><rect x="18" y="6" width="2" height="2" fill="#ffffff" data-fill-palette-color="quaternary"></rect><rect x="22" y="6" width="2" height="2" fill="#ffffff" data-fill-palette-color="quaternary"></rect><path d="M3 62H32A1 1 0 0 0 32.707 60.293L3.707 31.293A1 1 0 0 0 2 32V61A1 1 0 0 0 3 62M4 34.414L29.586 60H4Z" fill="#ffffff" data-fill-palette-color="quaternary"></path><path d="M17.707 54.293L9.707 46.293A1 1 0 0 0 8 47V55A1 1 0 0 0 9 56H17A1 1 0 0 0 17.707 54.293M10 54V49.414L14.586 54Z" fill="#ffffff" data-fill-palette-color="quaternary"></path><path d="M58.171 27A3.8 3.8 0 0 0 55.464 28.121L38.293 45.293A1 1 0 0 0 38.02 45.804L37.02 50.804A1 1 0 0 0 38.2 51.98L43.2 50.98A1 1 0 0 0 43.711 50.707L60.878 33.535A3.828 3.828 0 0 0 58.171 27M40.414 46L55 31.414 57.586 34 43 48.586ZM39.614 48.028L40.972 49.386 39.272 49.726ZM59.464 32.121L59 32.586 56.414 30 56.878 29.535A1.829 1.829 0 0 1 60 30.828 1.84 1.84 0 0 1 59.464 32.121" fill="#ffffff" data-fill-palette-color="quaternary"></path><path d="M42 26A10 10 0 0 0 31.692 16 10.064 10.064 0 0 0 22 26.036 9.94 9.94 0 0 0 24.761 32.889 8.6 8.6 0 0 1 27 38.889V42A2 2 0 0 0 29 44 3 3 0 0 0 35 44 2 2 0 0 0 37 42V38.859A9.6 9.6 0 0 1 39.52 32.582 9.97 9.97 0 0 0 42 26M32 45A1 1 0 0 1 31 44H33A1 1 0 0 1 32 45M34 42H29V40H35V42ZM31 29H33L32 30.333ZM35.037 38H33V32.333L35.8 28.6A1 1 0 0 0 35 27H29A1 1 0 0 0 28.2 28.6L31 32.333V38H28.968A10.4 10.4 0 0 0 26.208 31.508 7.95 7.95 0 0 1 24 26.028 8.05 8.05 0 0 1 31.752 18 7.993 7.993 0 0 1 38.017 31.258 11.8 11.8 0 0 0 35.037 38" fill="#ffffff" data-fill-palette-color="quaternary"></path><path d="M17 17H21V15H16A1 1 0 0 0 15 16V21H17Z" fill="#ffffff" data-fill-palette-color="quaternary"></path><path d="M49 21V16A1 1 0 0 0 48 15H43V17H47V21Z" fill="#ffffff" data-fill-palette-color="quaternary"></path></g></svg></g></svg></g></svg></g></svg></g></svg></g><defs></defs></svg><rect width="395.52" height="97.54665818916548" fill="none" stroke="none" visibility="hidden"></rect></g></svg></g></svg>